<svg xmlns="http://www.w3.org/2000/svg" width="16" height="16" viewBox="0 0 12 12"><path d="M10.936 8.37c.018.088.019.203.002.344-.014.144-.03.262-.05.355l-.232.112-9.594-5.54c-.003-.116 0-.234.01-.35.003-.114.023-.226.057-.337l.223-.117Zm-7.89 3.085c-.067.06-.166.118-.297.174-.13.06-.242.105-.332.135l-.213-.146V.54a3.66 3.66 0 0 1 .31-.168c.1-.053.206-.092.32-.118l.212.135zm2.25 0c-.067.06-.166.118-.297.174-.13.06-.242.105-.332.135l-.213-.146V.54a3.66 3.66 0 0 1 .31-.168c.1-.053.206-.092.32-.118l.212.135zm4.5 0c-.067.06-.166.118-.297.174-.13.06-.242.105-.332.135l-.213-.146V.54a3.66 3.66 0 0 1 .31-.168c.1-.053.206-.092.32-.118l.212.135zm-2.25 0c-.067.06-.166.118-.297.174-.131.06-.242.105-.332.135l-.213-.146V.54a3.66 3.66 0 0 1 .309-.168c.1-.053.207-.092.32-.118l.213.135z" style="font-style:normal;font-variant:normal;font-weight:400;font-stretch:normal;font-size:11.5px;line-height:0;font-family:&quot;Gentium Book Plus&quot;;-inkscape-font-specification:&quot;Gentium Book Plus&quot;;font-variant-ligatures:normal;font-variant-caps:normal;font-variant-numeric:normal;font-feature-settings:normal;text-align:start;writing-mode:lr-tb;text-anchor:start;fill:#000006;fill-opacity:1;stroke:none;stroke-width:.15;stroke-linecap:square;stroke-linejoin:bevel;stroke-miterlimit:4;stroke-dasharray:none;stroke-dashoffset:0;stroke-opacity:1;paint-order:markers stroke fill"/></svg>